Rookie Blue T4 [AMZN WEB-DL][1080p][CASTELLANO][3,5Gbs][02/13][MEGA]


[url=https://postimg.cc/GH2TYD64][img]https://i.postimg.cc/YqN65f3z/670e7e5ab3e4c.png[/img][/url]




Ficha Técnica

TÍTULO: Rookie Blue
TÍTULO ORIGINAL: Rookie Blue
TEMPORADA: 4
CAPÍTULOS: 13
AÑO: 2010
DURACIÓN: 42-44 minutos (por episodio)
PAÍS: Canadá
CREADORES / SHOWRUNNERS: Morwyn Brebner, Tassie Cameron, Ellen Vanstone
DIRECTORES: Varios (incluyendo John Fawcett, David Wellington, Gregory Smith, entre otros)
GUIÓN: Varios (equipo rotativo por episodios)
REPARTO: Missy Peregrym, Gregory Smith, Enuka Okuma, Travis Milne, Charlotte Sullivan, Ben Bass, Eric Johnson, Priscilla Faia, Lyriq Bent
COMPAÑÍAS: Coproducción Estados Unidos-Canadá; Thump, CanWest Global Television Network, Entertainment One, Shaw Media. Emitida por: ABC
GÉNERO: Serie de TV. Drama | Crimen. Policíaco
RATING: 7.7/10 IMDb
Sinopsis




Sinopsis


La serie sigue a un grupo de cinco policías novatos (rookies) recién graduados de la academia que comienzan su carrera en la 15ª División de la policía de Toronto. Junto a sus compañeros y oficiales experimentados, deben aprender sobre la marcha a mantener seguras las calles de la ciudad mientras lidian con sus complicadas vidas personales, errores de novatos, relaciones románticas y situaciones de alto riesgo que pueden tener consecuencias mortales.




Datos Del Ripeo

Ripeo Por: MattDrayton
Fuente del audio: AMZN
Versión: AMZN WEB-DL 1080p (Sin Logos ni publicidad)
Servidores: Mega





Datos del Video
Formato: Matroska
Video: High@L4 | 1920x960 @ 6 266 kb/s
Framerate: 25.000
Resolución: 1920x1080
Audio: Castellano AC3 256Kbps 2 canales
Subtitulos: SI


[SPOILER]

MediaInfo:

Video
ID : 1
Format : AVC
Format/Info : Advanced Video Codec
Format profile : High@L4
Format settings : CABAC / 4 Ref Frames
Format settings, CABAC : Yes
Format settings, Reference : 4 frames
Codec ID : V_MPEG4/ISO/AVC
Duration : 43 min 49 s
Bit rate mode : Constant
Bit rate : 6 151 kb/s
Nominal bit rate : 10 000 kb/s
Width : 1 920 pixels
Height : 960 pixels
Display aspect ratio : 2.000
Frame rate mode : Constant
Frame rate : 23.976 (24000/1001) FPS
Color space : YUV
Chroma subsampling : 4:2:0
Bit depth : 8 bits
Scan type : Progressive
Bits/(Pixel*Frame) : 0.139
Stream size : 1.88 GiB (91%)
Default : Yes
Forced : No
Color range : Limited
Color primaries : BT.709
Transfer characteristics : BT.709
Matrix coefficients : BT.709



Audio
Format : AC-3
Format/Info : Audio Coding 3
Commercial name : Dolby Digital
Bit rate mode : Constant
Bit rate : 256 kb/s
Channel(s) : 2 channels
Channel layout : L R
Sampling rate : 48.0 kHz
Frame rate : 31.250 FPS (1536 SPF)
Compression mode : Lossy
Stream size : 80.7 MiB (100%)
Service kind : Complete Main

[/SPOILER]




[Hide]
[code]


4x01 Sorpresa

Proximamente...

4x02 Regreso al hogar

Proximamente...

4x03 Diferente, no mejor

Proximamente...

4x04 Los chicos no están bien

Proximamente...

4x05 Píldora envenenada

Proximamente...

4x06 Esqueletos

Proximamente...

4x07 Viernes 13

Proximamente...

4x08 Para bien o para mal

Proximamente...

4x09 Lo que perdí

Proximamente...

4x10 Estás aquí

Proximamente...

4x11 Decepción

Proximamente...

4x12 Bajo fuego

Proximamente...

4x13 Puedes ver las estrellas

Proximamente...



[/code]
[/Hide]